<svg width="16" height="16" viewBox="0 0 16 16" fill="none" xmlns="http://www.w3.org/2000/svg">
<g clip-path="url(#clip0_2510_2428)">
<path fill-rule="evenodd" clip-rule="evenodd" d="M10.7119 6.94002C11.4102 7.47368 11.4102 8.52507 10.7119 9.05873L7.65865 11.3923C6.78126 12.0629 5.51566 11.4373 5.51566 10.333V5.66575C5.51566 4.56144 6.78126 3.93581 7.65865 4.6064L10.7119 6.94002ZM9.90228 7.99938L6.84899 5.66575L6.84899 10.333L9.90228 7.99938Z" fill="#FF3F3A"/>
<path fill-rule="evenodd" clip-rule="evenodd" d="M8.00008 1.99935C4.68637 1.99935 2.00008 4.68564 2.00008 7.99935C2.00008 11.3131 4.68637 13.9993 8.00008 13.9993C11.3138 13.9993 14.0001 11.3131 14.0001 7.99935C14.0001 4.68564 11.3138 1.99935 8.00008 1.99935ZM0.666748 7.99935C0.666748 3.94926 3.94999 0.666016 8.00008 0.666016C12.0502 0.666016 15.3334 3.94926 15.3334 7.99935C15.3334 12.0494 12.0502 15.3327 8.00008 15.3327C3.94999 15.3327 0.666748 12.0494 0.666748 7.99935Z" fill="#FF3F3A"/>
</g>
<defs>
<clipPath id="clip0_2510_2428">
<rect width="16" height="16" fill="white"/>
</clipPath>
</defs>
</svg>
