<svg width="16" height="16" viewBox="0 0 16 16" fill="none" xmlns="http://www.w3.org/2000/svg">
<path fill-rule="evenodd" clip-rule="evenodd" d="M8.00006 2.16732C6.71139 2.16732 5.66672 3.21199 5.66672 4.50065C5.66672 5.78932 6.71139 6.83398 8.00006 6.83398C9.28872 6.83398 10.3334 5.78932 10.3334 4.50065C10.3334 3.21199 9.28872 2.16732 8.00006 2.16732ZM4.33339 4.50065C4.33339 2.47561 5.97501 0.833984 8.00006 0.833984C10.0251 0.833984 11.6667 2.47561 11.6667 4.50065C11.6667 6.5257 10.0251 8.16732 8.00006 8.16732C5.97501 8.16732 4.33339 6.5257 4.33339 4.50065Z" fill="#FF3F3A"/>
<path fill-rule="evenodd" clip-rule="evenodd" d="M4.06943 10.1673C3.60722 10.1673 3.24595 10.3924 3.0993 10.7157C2.89632 11.1633 2.71252 11.6961 2.66915 12.2014C2.64976 12.4273 2.74395 12.5938 2.87374 12.6744C3.55984 13.1006 5.14965 13.834 8.00006 13.834C10.8505 13.834 12.4403 13.1006 13.1264 12.6744C13.2562 12.5938 13.3504 12.4273 13.331 12.2014C13.2876 11.6961 13.1038 11.1633 12.9008 10.7157C12.7542 10.3924 12.3929 10.1673 11.9307 10.1673H4.06943ZM1.88501 10.165C2.29031 9.27136 3.19533 8.83398 4.06943 8.83398H11.9307C12.8048 8.83398 13.7098 9.27136 14.1151 10.165C14.3479 10.6783 14.5977 11.3683 14.6594 12.0874C14.7156 12.7422 14.4435 13.4259 13.83 13.807C12.9276 14.3676 11.0931 15.1673 8.00006 15.1673C4.90699 15.1673 3.07253 14.3676 2.17017 13.807C1.55666 13.4259 1.2845 12.7422 1.3407 12.0874C1.40242 11.3683 1.65222 10.6783 1.88501 10.165Z" fill="#FF3F3A"/>
</svg>
