<svg width="16" height="16" viewBox="0 0 16 16" fill="none" xmlns="http://www.w3.org/2000/svg">
<path fill-rule="evenodd" clip-rule="evenodd" d="M6.77956 1.46709C7.24272 0.398992 8.75744 0.39899 9.2206 1.46709L10.6217 4.69809L14.1275 5.03216C15.2864 5.14259 15.7545 6.58317 14.8818 7.35373L12.2419 9.68467L13.0076 13.1221C13.2607 14.2585 12.0352 15.1488 11.0327 14.5569L8.00008 12.7665L4.96745 14.5569C3.96493 15.1488 2.7395 14.2585 2.99261 13.1221L3.75825 9.68467L1.11834 7.35373C0.245643 6.58317 0.713714 5.14259 1.87266 5.03216L5.37848 4.69809L6.77956 1.46709ZM9.40116 5.22735L8.00008 1.99635L6.59901 5.22735C6.40624 5.67189 5.98703 5.97647 5.50468 6.02243L1.99886 6.35649L4.63877 8.68743C5.00198 9.00813 5.1621 9.50095 5.05676 9.97389L4.29112 13.4114L7.32375 11.621C7.74099 11.3746 8.25917 11.3746 8.67641 11.621L11.709 13.4114L10.9434 9.97389C10.8381 9.50095 10.9982 9.00813 11.3614 8.68743L14.0013 6.35649L10.4955 6.02243C10.0131 5.97647 9.59392 5.67189 9.40116 5.22735Z" fill="#1E212C"/>
</svg>
